<?xml version="1.0" standalone="no"?>
<!DOCTYPE svg PUBLIC "-//W3C//DTD SVG 20010904//EN"
 "http://www.w3.org/TR/2001/REC-SVG-20010904/DTD/svg10.dtd">
<svg version="1.0" xmlns="http://www.w3.org/2000/svg"
 width="294.293444pt" height="294.120783pt" viewBox="0 0 294.293444 294.120783"
 preserveAspectRatio="xMidYMid meet">
<metadata>Created by Svg.la</metadata>
<g transform="translate(-89.459227,384.620783) scale(0.100000,-0.100000)"
fill="#ff4013" stroke="none">
<path d="M2105 3581 c-241 -241 -263 -266 -238 -269 23 -3 58 28 265 235 l238
238 238 -238 c215 -215 242 -238 268 -235 27 3 13 19 -238 269 l-268 265 -265
-265z"/>
<path d="M2175 3500 c-175 -175 -187 -190 -160 -190 25 0 55 25 192 162 l163
163 163 -163 c137 -137 167 -162 192 -162 27 0 15 15 -160 190 -104 105 -192
190 -195 190 -3 0 -91 -85 -195 -190z"/>
<path d="M1565 3168 c-3 -7 -4 -371 -3 -808 l3 -795 805 0 805 0 0 805 0 805
-803 3 c-637 2 -804 0 -807 -10z m1540 -798 l0 -735 -735 0 -735 0 -3 725 c-1
399 0 731 3 738 3 10 156 12 737 10 l733 -3 0 -735z"/>
<path d="M2215 2803 c-90 -19 -219 -79 -267 -125 -52 -48 -52 -86 -1 -125 27
-21 37 -25 41 -14 10 31 78 94 137 127 60 33 204 89 211 82 2 -2 -25 -64 -60
-138 -120 -256 -206 -472 -206 -516 0 -14 11 -35 25 -48 49 -46 57 -42 129 63
36 53 74 106 84 119 l18 23 51 -68 c120 -161 235 -263 298 -263 29 0 75 30 75
49 0 4 -29 23 -64 41 -86 43 -212 144 -275 220 l-51 62 40 49 c68 80 230 239
331 323 52 44 96 83 97 88 6 14 -21 40 -57 55 l-34 15 -79 -79 c-44 -43 -138
-147 -210 -230 -72 -84 -135 -150 -140 -147 -14 9 -40 -17 -33 -34 5 -14 -33
-77 -42 -69 -6 6 97 237 166 372 31 61 57 113 59 116 1 4 -9 21 -23 38 -25 29
-31 31 -88 30 -34 0 -93 -7 -132 -16z"/>
<path d="M1160 2635 l-265 -265 265 -265 c240 -240 265 -263 268 -238 3 23
-28 58 -235 265 l-238 238 238 238 c207 207 238 242 235 266 -3 24 -27 2 -268
-239z"/>
<path d="M3310 2874 c0 -24 36 -65 237 -266 l238 -238 -238 -238 c-207 -207
-238 -242 -235 -266 3 -24 27 -3 263 234 143 142 261 263 263 268 1 5 -455
469 -523 531 -3 2 -5 -9 -5 -25z"/>
<path d="M1235 2560 l-190 -190 190 -190 c174 -175 190 -188 193 -164 3 23
-19 50 -160 191 l-163 163 163 163 c141 141 163 168 160 191 -3 24 -19 11
-193 -164z"/>
<path d="M3310 2725 c0 -25 25 -55 162 -192 l162 -163 -159 -160 c-132 -132
-161 -166 -163 -193 -3 -29 12 -17 190 161 l193 192 -193 192 c-177 178 -192
191 -192 163z"/>
<path d="M1915 1349 c241 -243 447 -444 455 -444 6 0 127 117 270 260 238 237
258 260 234 263 -24 3 -58 -27 -266 -235 l-238 -238 -238 238 c-203 203 -241
237 -267 237 -29 0 -27 -2 50 -81z"/>
<path d="M2178 1238 l192 -193 192 193 c179 178 191 192 163 192 -26 0 -55
-24 -193 -162 l-162 -163 -163 163 c-137 137 -167 162 -192 162 -28 0 -15 -15
163 -192z"/>
</g>
</svg>
