<?xml version="1.0" standalone="no"?>
<!DOCTYPE svg PUBLIC "-//W3C//DTD SVG 20010904//EN"
 "http://www.w3.org/TR/2001/REC-SVG-20010904/DTD/svg10.dtd">
<svg version="1.0" xmlns="http://www.w3.org/2000/svg"
 width="512" height="512" viewBox="0 0 488.805398 443.390670"
 preserveAspectRatio="xMidYMid meet">
<metadata>Created by Svg.la</metadata>
<g transform="translate(-268.104066,731.530792) scale(0.100000,-0.100000)"
fill="#f4511e" stroke="none">
<path d="M4992 7309 c-308 -27 -592 -108 -863 -246 -336 -170 -664 -469 -880
-803 -50 -77 -109 -185 -109 -198 0 -29 38 -9 60 31 50 90 156 246 225 333
109 135 178 207 300 311 288 246 596 400 965 482 712 158 1435 -47 1963 -558
169 -164 324 -373 433 -586 49 -95 75 -121 82 -83 5 23 -73 171 -159 303 -331
509 -837 858 -1419 979 -173 36 -423 51 -598 35z"/>
<path d="M2954 5853 c-18 -2 -39 -12 -47 -21 -24 -27 -106 -384 -161 -702 -35
-196 -55 -369 -63 -527 -7 -152 0 -175 64 -192 78 -22 90 -10 104 99 5 47 24
153 41 235 38 188 39 195 45 195 2 0 64 -52 136 -116 315 -275 604 -439 722
-410 36 9 65 41 65 74 0 24 -10 32 -97 77 -179 92 -364 229 -540 399 -142 136
-140 126 -29 193 311 186 698 475 712 529 4 14 4 42 0 62 -13 85 -81 119 -128
63 -102 -120 -623 -499 -737 -536 -19 -6 -22 -4 -18 12 3 10 11 38 17 63 6 25
36 122 66 217 58 184 62 207 39 240 -23 33 -116 55 -191 46z m120 -57 c19 -8
36 -18 39 -23 3 -5 -27 -119 -68 -254 -91 -305 -92 -307 -69 -316 54 -20 543
306 778 519 74 67 79 71 92 53 29 -40 18 -79 -38 -132 -44 -41 -178 -144 -264
-203 -12 -8 -61 -42 -108 -75 -48 -33 -94 -64 -104 -70 -18 -10 -176 -108
-244 -152 -47 -29 -48 -50 -5 -100 148 -173 482 -437 670 -529 31 -15 57 -32
57 -36 0 -4 -9 -12 -21 -19 -91 -48 -461 180 -762 470 -85 81 -100 92 -112 80
-18 -17 -58 -191 -94 -399 -23 -139 -28 -155 -47 -158 -39 -6 -47 20 -45 141
2 125 10 207 47 447 42 274 142 728 166 757 14 17 90 16 132 -1z"/>
<path d="M7426 5841 c-3 -4 -10 -50 -16 -102 -25 -221 -49 -359 -101 -593 -48
-210 -76 -306 -90 -306 -30 0 -132 285 -214 602 -59 225 -79 275 -125 308 -72
51 -146 33 -200 -49 -79 -118 -223 -588 -304 -986 -48 -239 -50 -253 -35 -271
32 -39 141 -65 171 -42 11 9 28 62 48 158 68 312 202 750 229 750 5 0 16 -28
26 -62 138 -506 300 -803 436 -803 83 0 112 52 174 311 85 356 152 813 143
975 -3 63 -7 74 -31 95 -28 24 -100 34 -111 15z m76 -48 c25 -30 27 -46 17
-189 -16 -243 -78 -610 -148 -879 -57 -217 -66 -235 -124 -235 -83 0 -211 216
-317 537 -32 98 -68 216 -80 263 -33 130 -63 139 -111 33 -60 -135 -184 -566
-244 -850 -7 -37 -27 -42 -84 -22 -36 13 -36 13 -17 130 38 227 134 605 212
831 87 251 128 318 191 318 76 0 101 -44 158 -270 55 -219 83 -312 136 -455
74 -199 117 -266 155 -235 45 38 174 636 209 978 7 65 19 77 47 45z"/>
<path d="M4445 5814 c-154 -32 -316 -140 -345 -230 -21 -62 6 -144 47 -144 17
0 17 1 -17 -120 -69 -237 -135 -520 -169 -720 -22 -127 -17 -154 29 -177 28
-14 138 -17 158 -5 7 5 28 80 46 168 60 280 69 314 81 314 19 0 151 -96 276
-201 287 -240 394 -307 472 -292 37 7 97 59 97 84 0 19 -7 25 -108 91 -89 58
-451 363 -460 387 -1 4 43 27 99 51 282 120 416 251 427 416 6 100 -15 159
-85 234 -122 132 -336 188 -548 144z m250 -39 c242 -43 383 -209 331 -388 -39
-133 -189 -249 -448 -347 -116 -44 -116 -53 -5 -153 142 -129 268 -235 380
-319 59 -45 107 -85 107 -89 0 -17 -45 -31 -83 -26 -43 6 -135 64 -248 157
-335 277 -439 353 -474 348 -23 -3 -44 -74 -96 -328 -18 -85 -38 -161 -45
-169 -10 -11 -24 -12 -66 -5 -48 8 -53 12 -56 36 -9 80 174 858 229 974 13 28
124 98 140 88 6 -3 -13 -84 -87 -376 -14 -59 -24 -114 -21 -123 19 -48 353 74
494 179 172 130 179 303 16 382 -140 69 -387 27 -569 -96 -25 -16 -47 -30 -50
-30 -2 0 -4 20 -4 45 0 39 6 52 41 90 76 82 184 134 320 153 90 13 104 13 194
-3z m34 -191 c20 -8 48 -27 63 -41 105 -101 18 -245 -213 -356 -116 -56 -207
-87 -253 -87 -24 0 -26 3 -20 28 4 15 29 113 56 217 28 105 52 200 55 213 7
28 10 29 88 41 75 12 176 5 224 -15z"/>
<path d="M6136 5748 c-7 -13 -17 -52 -21 -88 -36 -346 -212 -768 -383 -920
-69 -61 -112 -76 -159 -54 -70 34 -104 138 -105 324 0 145 18 264 67 437 19
67 35 132 35 144 0 52 -109 139 -174 139 -48 0 -83 -71 -135 -273 -38 -148
-61 -329 -61 -487 0 -355 119 -558 339 -577 119 -11 237 44 361 167 172 170
328 474 408 795 37 147 56 266 47 304 -18 82 -181 148 -219 89z m125 -50 c47
-26 54 -47 45 -135 -8 -77 -63 -297 -101 -403 -79 -217 -214 -448 -330 -565
-114 -115 -198 -157 -311 -158 -58 0 -79 4 -121 28 -67 36 -95 66 -132 142
-54 108 -66 177 -65 378 0 190 11 277 60 474 34 137 70 221 96 221 27 0 68
-23 100 -57 27 -28 27 -29 12 -78 -37 -120 -73 -299 -84 -410 -35 -355 70
-564 246 -490 49 20 147 117 200 196 128 193 253 543 279 784 4 33 9 68 11 78
7 24 48 22 95 -5z"/>
<path d="M7071 4143 c-173 -340 -430 -627 -755 -845 -249 -166 -535 -281 -846
-339 -136 -26 -475 -37 -616 -20 -434 51 -837 228 -1170 515 -233 200 -388
394 -534 669 -57 108 -79 133 -95 107 -9 -14 103 -224 177 -335 467 -692 1248
-1077 2043 -1005 326 29 661 134 937 292 178 102 335 223 483 372 181 182 316
369 430 597 40 79 41 85 17 91 -15 4 -29 -16 -71 -99z"/>
</g>
</svg>
